<?xml version="1.0" encoding="UTF-8"?>
<svg id="Layer_1" data-name="Layer 1" xmlns="http://www.w3.org/2000/svg" viewBox="0 0 5365.72 441.59">
  <defs>
    <style>
      .cls-1 {
        fill: #fff;
      }
    </style>
  </defs>
  <rect class="cls-1" x="5329.61" y="324.37" width="36.12" height="36.59"/>
  <polygon class="cls-1" points="898.87 82.77 983.87 82.77 983.87 184.63 1023.7 184.63 1130.92 82.77 1246.56 82.77 1096.45 218.33 1264.17 360.01 1143.94 360.01 1021.4 253.56 983.87 253.56 983.87 360.01 898.87 360.01 898.87 82.77"/>
  <path class="cls-1" d="M1388.62,219.09h140.53c22.98,0,31.4-9.19,31.4-29.1v-9.19c0-24.51-12.26-29.11-39.05-29.11h-132.88v67.4ZM1303.61,82.77h256.55c65.48,0,83.1,32.55,83.1,82.33v17.62c0,37.14-8.43,58.98-47.48,68.17v.76c25.28,4.6,46.34,15.7,46.34,61.27v47.1h-85.01v-33.31c0-29.11-8.42-38.68-34.85-38.68h-133.63v71.99h-85.01V82.77Z"/>
  <path class="cls-1" d="M1832.81,251.27h108.76l-55.16-104.16-53.6,104.16ZM1831.27,82.77h110.68l152.39,277.24h-94.58l-26.41-49.02h-172.33l-24.89,49.02h-94.96l150.09-277.24Z"/>
  <polygon class="cls-1" points="2132.26 82.77 2262.83 82.77 2358.94 261.21 2455.06 82.77 2585.63 82.77 2585.63 360.01 2502.92 360.01 2502.92 160.89 2502.14 160.89 2390.73 360.01 2327.16 360.01 2215.73 160.89 2214.96 160.89 2214.96 360.01 2132.26 360.01 2132.26 82.77"/>
  <path class="cls-1" d="M2751.04,221.39h132.12c19.92,0,27.57-13.02,27.57-29.49v-10.72c0-18.76-9.19-29.48-34.85-29.48h-124.84v69.69ZM2666.04,82.77h231.67c80.79,0,100.33,40.6,100.33,94.97v23.74c0,41.36-18,88.85-78.1,88.85h-168.89v69.68h-85V82.77Z"/>
  <polygon class="cls-1" points="654.2 82.32 385.28 82.32 239.33 202.06 482.12 202.06 654.2 82.32"/>
  <polygon class="cls-1" points="654.51 359.35 385.59 359.35 239.67 239.62 482.44 239.62 654.51 359.35"/>
  <rect class="cls-1" x="0" y="82.32" width="236.31" height="119.74"/>
  <rect class="cls-1" x="0" y="239.62" width="236.31" height="119.73"/>
  <rect class="cls-1" width="662.33" height="44.68"/>
  <rect class="cls-1" y="396.89" width="662.33" height="44.7"/>
  <path class="cls-1" d="M5179.56,438.44h2.77c15.03,0,26.69-1.65,35-4.94,8.3-3.3,15.23-9.17,20.76-17.6,5.54-8.44,11.47-21.49,17.8-39.15l73.16-213.16c.79-2.9-.27-4.35-3.16-4.35h-20.57c-2.37,0-3.95,1.06-4.75,3.16l-50.62,159.77c-.27.53-.66.79-1.19.79s-.93-.26-1.19-.79l-51.41-159.77c-.79-2.11-2.37-3.16-4.75-3.16h-20.96c-2.37,0-3.56.93-3.56,2.77l.39,1.58,66.83,194.57c.52.53.52,1.32,0,2.37-4.74,15.29-9.16,26.69-13.25,34.21-4.09,7.51-8.97,12.65-14.63,15.42-5.67,2.77-13.65,4.28-23.93,4.55h-1.58c-2.64,0-3.96,1.31-3.96,3.95v15.82c0,2.63.92,3.95,2.77,3.95M5072.79,361.32c22.15,0,39.94-5.14,53.39-15.42,13.45-10.29,20.17-23.99,20.17-41.13,0-12.13-3.43-21.95-10.28-29.47-6.86-7.51-15.03-13.25-24.52-17.2-9.49-3.96-21.88-8.17-37.17-12.65-16.61-4.75-28.87-9.5-36.78-14.24-7.91-4.75-11.86-11.6-11.86-20.57,0-9.49,4.08-16.93,12.26-22.34,8.17-5.4,18.98-8.11,32.43-8.11,14.5,0,26.03,3.03,34.6,9.1,8.57,6.07,12.85,13.58,12.85,22.54v1.19c0,2.64,1.32,3.95,3.96,3.95h18.59c2.63,0,3.95-1.31,3.95-3.95v-1.19c0-10.28-3.03-19.57-9.09-27.88-6.07-8.31-14.7-14.83-25.91-19.58-11.21-4.74-24.06-7.12-38.56-7.12-21.62,0-39.02,5.01-52.2,15.03-13.19,10.02-19.77,23.47-19.77,40.33,0,11.61,3.22,21.16,9.69,28.67,6.46,7.51,14.44,13.39,23.93,17.6,9.49,4.22,21.61,8.44,36.38,12.65,12.39,3.7,21.55,6.72,27.49,9.09,5.93,2.37,11.07,5.67,15.42,9.89,4.35,4.22,6.53,9.63,6.53,16.22,0,9.49-4.22,17.34-12.65,23.53-8.44,6.2-19.51,9.3-33.22,9.3s-25.11-3.23-34.21-9.69c-9.09-6.46-13.64-14.04-13.64-22.74v-3.16c0-2.63-1.32-3.95-3.95-3.95h-18.98c-2.64,0-3.95,1.32-3.95,3.95v4.75c0,9.76,3.1,18.59,9.29,26.5,6.19,7.91,15.03,14.23,26.5,18.98,11.47,4.74,24.58,7.12,39.35,7.12M4865.63,338.39c-12.92,0-23.4-2.97-31.44-8.9-8.05-5.93-12.06-14.69-12.06-26.3,0-12.65,5.27-22.54,15.82-29.66,10.54-7.12,24.52-10.68,41.92-10.68h41.53c1.05,0,1.58.53,1.58,1.58v30.84c0,13.19-5.67,23.67-17.01,31.44-11.34,7.78-24.79,11.67-40.34,11.67M4876.71,156.07c-20.57,0-37.71,4.62-51.41,13.84-13.71,9.23-21.62,21.22-23.73,35.99-.53,1.58.65,2.64,3.56,3.16l21.36,2.77c2.37.27,3.96-.92,4.75-3.56,1.84-8.7,6.72-15.48,14.63-20.37,7.91-4.87,18.19-7.32,30.85-7.32,15.82,0,27.48,3.89,35,11.67,7.51,7.78,11.27,18.39,11.27,31.84v15.02c0,1.06-.53,1.58-1.58,1.58h-45.88c-25.58,0-45.55,5.74-59.91,17.2-14.37,11.47-21.55,27.09-21.55,46.86s6.33,34.01,18.98,43.5c12.65,9.49,28.34,14.24,47.06,14.24,12.92,0,24.65-2.04,35.2-6.13,10.54-4.08,19.11-10.09,25.71-17.99.52-.53.99-.65,1.39-.4.39.27.59.66.59,1.19v16.22c0,2.64,1.32,3.95,3.95,3.95h20.17c2.64,0,3.96-1.32,3.96-3.95v-132.88c0-20.03-6.47-36.12-19.38-48.25-12.92-12.13-31.24-18.19-54.97-18.19M4669.09,180.59c13.44,0,24.58,3.5,33.42,10.48,8.83,6.99,14.69,16.41,17.6,28.27,1.05,5.01,1.84,13.44,2.37,25.31,0,1.06-.53,1.58-1.58,1.58h-102.42c-1.06,0-1.58-.53-1.58-1.58.52-12.39,1.58-21.36,3.16-26.89,2.63-11.33,8.24-20.37,16.81-27.09,8.57-6.72,19.31-10.08,32.23-10.08M4748.58,225.68c-3.16-22.15-11.21-39.28-24.12-51.41-12.92-12.13-31.38-18.19-55.37-18.19-19.25,0-35.66,5.14-49.24,15.42-13.58,10.29-22.61,24-27.09,41.13-1.58,5.54-2.57,11.81-2.97,18.79-.4,6.99-.6,16.02-.6,27.09,0,23.73,2.37,41.92,7.12,54.58,5.53,15.56,14.63,27.68,27.29,36.38,12.65,8.7,28.34,13.18,47.06,13.45,17.14,0,32.3-3.62,45.48-10.88,13.18-7.25,23.07-17.2,29.66-29.86,1.05-2.37.53-4.22-1.58-5.54l-15.43-9.09c-2.11-1.32-3.95-.79-5.53,1.58-4.75,9.23-11.34,16.35-19.78,21.36-8.44,5.01-18.19,7.51-29.26,7.51-14.77,0-26.89-3.42-36.38-10.28-9.49-6.86-15.69-16.22-18.59-28.08-1.06-4.21-1.85-13.58-2.37-28.08,0-1.05.52-1.58,1.58-1.58h127.73c2.63,0,3.95-1.31,3.95-3.95v-12.65c0-11.08-.53-20.3-1.58-27.68M4454.75,178.62v-15.43c0-2.63-1.32-3.95-3.96-3.95h-44.68c-1.06,0-1.58-.52-1.58-1.58v-45.87c0-2.64-1.32-3.96-3.95-3.96h-19.38c-2.64,0-3.95,1.32-3.95,3.96v45.87c0,1.06-.53,1.58-1.58,1.58h-24.12c-2.64,0-3.95,1.32-3.95,3.95v15.43c0,2.64,1.31,3.95,3.95,3.95h24.12c1.05,0,1.58.53,1.58,1.58v125.36c0,19.25,4.87,32.43,14.63,39.55,9.75,7.12,24.12,10.68,43.1,10.68,6.59,0,11.47-.14,14.64-.4,2.63,0,3.95-1.32,3.95-3.95v-16.22c0-2.63-1.32-3.95-3.95-3.95h-9.89c-12.13,0-21.03-2.57-26.7-7.71-5.67-5.14-8.5-14.04-8.5-26.69v-116.66c0-1.05.52-1.58,1.58-1.58h44.68c2.64,0,3.96-1.32,3.96-3.95M4219.05,338.39c-12.92,0-23.4-2.97-31.44-8.9-8.05-5.93-12.06-14.69-12.06-26.3,0-12.65,5.27-22.54,15.82-29.66,10.54-7.12,24.52-10.68,41.92-10.68h41.53c1.05,0,1.58.53,1.58,1.58v30.84c0,13.19-5.67,23.67-17.01,31.44-11.34,7.78-24.79,11.67-40.34,11.67M4230.13,156.07c-20.57,0-37.71,4.62-51.41,13.84-13.71,9.23-21.62,21.22-23.73,35.99-.53,1.58.65,2.64,3.56,3.16l21.36,2.77c2.37.27,3.95-.92,4.75-3.56,1.84-8.7,6.72-15.48,14.63-20.37,7.91-4.87,18.19-7.32,30.85-7.32,15.82,0,27.48,3.89,35,11.67,7.51,7.78,11.27,18.39,11.27,31.84v15.02c0,1.06-.53,1.58-1.58,1.58h-45.88c-25.58,0-45.55,5.74-59.92,17.2-14.37,11.47-21.55,27.09-21.55,46.86s6.33,34.01,18.98,43.5c12.65,9.49,28.34,14.24,47.06,14.24,12.92,0,24.65-2.04,35.2-6.13,10.54-4.08,19.11-10.09,25.71-17.99.52-.53.99-.65,1.39-.4.39.27.59.66.59,1.19v16.22c0,2.64,1.32,3.95,3.95,3.95h20.17c2.64,0,3.96-1.32,3.96-3.95v-132.88c0-20.03-6.47-36.12-19.38-48.25-12.92-12.13-31.24-18.19-54.97-18.19M4027.26,156.47c-24,0-41.79,8.17-53.39,24.52-.27.53-.59.66-.99.4-.4-.26-.6-.65-.6-1.19v-93.72c0-2.64-1.32-3.96-3.95-3.96h-20.17c-2.64,0-3.95,1.32-3.95,3.96v268.92c0,2.64,1.32,3.95,3.95,3.95h20.17c2.63,0,3.95-1.32,3.95-3.95v-125.76c0-14.5,4.48-26.23,13.45-35.19,8.96-8.96,20.69-13.45,35.2-13.45s25.37,4.62,34.2,13.84c8.83,9.23,13.25,21.1,13.25,35.59v124.97c0,2.64,1.31,3.95,3.95,3.95h20.17c2.63,0,3.95-1.32,3.95-3.95v-130.51c0-20.82-6.26-37.43-18.78-49.83-12.52-12.39-29.33-18.59-50.42-18.59M3886.47,178.62v-15.43c0-2.63-1.32-3.95-3.96-3.95h-44.68c-1.06,0-1.58-.52-1.58-1.58v-45.87c0-2.64-1.32-3.96-3.95-3.96h-19.38c-2.64,0-3.95,1.32-3.95,3.96v45.87c0,1.06-.53,1.58-1.58,1.58h-24.12c-2.64,0-3.95,1.32-3.95,3.95v15.43c0,2.64,1.31,3.95,3.95,3.95h24.12c1.05,0,1.58.53,1.58,1.58v125.36c0,19.25,4.87,32.43,14.63,39.55,9.75,7.12,24.12,10.68,43.1,10.68,6.59,0,11.47-.14,14.64-.4,2.63,0,3.95-1.32,3.95-3.95v-16.22c0-2.63-1.32-3.95-3.95-3.95h-9.89c-12.13,0-21.03-2.57-26.69-7.71-5.67-5.14-8.5-14.04-8.5-26.69v-116.66c0-1.05.52-1.58,1.58-1.58h44.68c2.64,0,3.96-1.32,3.96-3.95M3585.92,361.32c22.15,0,39.94-5.14,53.39-15.42,13.45-10.29,20.17-23.99,20.17-41.13,0-12.13-3.43-21.95-10.28-29.47-6.86-7.51-15.03-13.25-24.52-17.2-9.49-3.96-21.88-8.17-37.17-12.65-16.61-4.75-28.87-9.5-36.78-14.24-7.91-4.75-11.86-11.6-11.86-20.57,0-9.49,4.08-16.93,12.26-22.34,8.17-5.4,18.98-8.11,32.43-8.11,14.5,0,26.03,3.03,34.6,9.1,8.57,6.07,12.85,13.58,12.85,22.54v1.19c0,2.64,1.32,3.95,3.96,3.95h18.59c2.63,0,3.95-1.31,3.95-3.95v-1.19c0-10.28-3.03-19.57-9.09-27.88-6.07-8.31-14.7-14.83-25.91-19.58-11.21-4.74-24.06-7.12-38.56-7.12-21.62,0-39.02,5.01-52.2,15.03-13.19,10.02-19.77,23.47-19.77,40.33,0,11.61,3.22,21.16,9.69,28.67,6.45,7.51,14.43,13.39,23.92,17.6,9.49,4.22,21.61,8.44,36.38,12.65,12.39,3.7,21.55,6.72,27.48,9.09,5.93,2.37,11.07,5.67,15.42,9.89,4.35,4.22,6.53,9.63,6.53,16.22,0,9.49-4.22,17.34-12.65,23.53-8.44,6.2-19.51,9.3-33.22,9.3s-25.11-3.23-34.2-9.69c-9.1-6.46-13.65-14.04-13.65-22.74v-3.16c0-2.63-1.32-3.95-3.95-3.95h-18.98c-2.64,0-3.95,1.32-3.95,3.95v4.75c0,9.76,3.1,18.59,9.29,26.5,6.19,7.91,15.03,14.23,26.5,18.98,11.47,4.74,24.58,7.12,39.35,7.12M3502.08,82.52h-20.96c-2.37,0-3.95,1.06-4.74,3.16l-23.33,73.56c-.79,2.9.26,4.35,3.16,4.35h15.02c2.11,0,3.56-1.05,4.35-3.16l29.27-73.16c.52-1.32.52-2.44,0-3.36-.53-.92-1.45-1.39-2.77-1.39M3425.36,178.62v-15.43c0-2.63-1.32-3.95-3.95-3.95h-44.69c-1.06,0-1.58-.52-1.58-1.58v-45.87c0-2.64-1.32-3.96-3.95-3.96h-19.38c-2.64,0-3.95,1.32-3.95,3.96v45.87c0,1.06-.53,1.58-1.58,1.58h-24.13c-2.64,0-3.95,1.32-3.95,3.95v15.43c0,2.64,1.32,3.95,3.95,3.95h24.13c1.05,0,1.58.53,1.58,1.58v125.36c0,19.25,4.87,32.43,14.63,39.55,9.75,7.12,24.13,10.68,43.11,10.68,6.58,0,11.47-.14,14.63-.4,2.63,0,3.95-1.32,3.95-3.95v-16.22c0-2.63-1.32-3.95-3.95-3.95h-9.89c-12.13,0-21.03-2.57-26.69-7.71-5.67-5.14-8.5-14.04-8.5-26.69v-116.66c0-1.05.53-1.58,1.58-1.58h44.69c2.63,0,3.95-1.32,3.95-3.95M3239.1,359.34h20.17c2.63,0,3.95-1.32,3.95-3.95V86.47c0-2.64-1.32-3.96-3.95-3.96h-20.17c-2.64,0-3.95,1.32-3.95,3.96v268.92c0,2.64,1.31,3.95,3.95,3.95"/>
</svg>