<?xml version="1.0" encoding="UTF-8"?>
<svg id="Layer_1" data-name="Layer 1" xmlns="http://www.w3.org/2000/svg" viewBox="0 0 4935.94 1618.68">
  <defs>
    <style>
      .cls-1 {
        fill: #9b1915;
      }
    </style>
  </defs>
  <polygon class="cls-1" points="1462.76 134.69 1601.09 134.69 1601.09 300.46 1665.9 300.46 1840.39 134.69 2028.57 134.69 1784.29 355.29 2057.23 585.85 1861.57 585.85 1662.16 412.63 1601.09 412.63 1601.09 585.85 1462.76 585.85 1462.76 134.69"/>
  <path class="cls-1" d="M2259.75,356.54h228.69c37.4,0,51.11-14.95,51.11-47.36v-14.95c0-39.89-19.95-47.37-63.55-47.37h-216.24v109.68ZM2121.41,134.69h417.5c106.56,0,135.23,52.97,135.23,133.97v28.67c0,60.45-13.72,95.98-77.27,110.93v1.23c41.14,7.48,75.4,25.56,75.4,99.71v76.64h-138.33v-54.21c0-47.37-13.71-62.94-56.71-62.94h-217.47v117.15h-138.34V134.69Z"/>
  <path class="cls-1" d="M2982.59,408.9h176.98l-89.76-169.51-87.23,169.51ZM2980.09,134.69h180.11l247.99,451.16h-153.91l-42.98-79.77h-280.44l-40.5,79.77h-154.53l244.25-451.16Z"/>
  <polygon class="cls-1" points="3469.91 134.69 3682.38 134.69 3838.79 425.08 3995.2 134.69 4207.68 134.69 4207.68 585.85 4073.08 585.85 4073.08 261.82 4071.83 261.82 3890.51 585.85 3787.06 585.85 3605.73 261.82 3604.48 261.82 3604.48 585.85 3469.91 585.85 3469.91 134.69"/>
  <path class="cls-1" d="M4476.86,360.28h215c32.41,0,44.86-21.18,44.86-47.99v-17.45c0-30.53-14.95-47.98-56.71-47.98h-203.15v113.42ZM4338.54,134.69h377.01c131.47,0,163.26,66.06,163.26,154.55v38.64c0,67.31-29.3,144.58-127.1,144.58h-274.84v113.39h-138.33V134.69Z"/>
  <polygon class="cls-1" points="1064.6 133.96 626.98 133.96 389.47 328.82 784.57 328.82 1064.6 133.96"/>
  <polygon class="cls-1" points="1065.11 584.78 627.48 584.78 390.03 389.93 785.09 389.93 1065.11 584.78"/>
  <rect class="cls-1" y="133.96" width="384.56" height="194.85"/>
  <rect class="cls-1" y="389.94" width="384.56" height="194.85"/>
  <rect class="cls-1" y="0" width="1077.83" height="72.7"/>
  <rect class="cls-1" y="645.87" width="1077.83" height="72.74"/>
  <path class="cls-1" d="M4632.13,1618.68h4.5c24.46,0,43.44-2.68,56.96-8.04,13.51-5.37,24.78-14.92,33.78-28.64,9.01-13.74,18.67-34.97,28.97-63.71l119.06-346.88c1.29-4.72-.43-7.08-5.15-7.08h-33.47c-3.86,0-6.43,1.72-7.73,5.15l-82.37,260c-.43.87-1.07,1.29-1.93,1.29s-1.51-.42-1.93-1.29l-83.66-260c-1.29-3.43-3.86-5.15-7.73-5.15h-34.11c-3.86,0-5.79,1.51-5.79,4.5l.64,2.58,108.76,316.63c.85.87.85,2.14,0,3.86-7.72,24.88-14.91,43.44-21.56,55.67-6.66,12.22-14.59,20.59-23.81,25.1-9.23,4.5-22.21,6.97-38.94,7.4h-2.57c-4.3,0-6.44,2.14-6.44,6.43v25.74c0,4.28,1.5,6.43,4.51,6.43M4453.37,1493.19c36.04,0,65-8.37,86.88-25.1,21.89-16.74,32.82-39.04,32.82-66.93,0-19.73-5.58-35.72-16.73-47.95-11.16-12.23-24.46-21.56-39.9-27.99-15.45-6.44-35.61-13.29-60.5-20.59-27.03-7.73-46.97-15.45-59.85-23.17-12.87-7.73-19.31-18.88-19.31-33.47,0-15.45,6.65-27.56,19.95-36.36,13.29-8.78,30.89-13.19,52.77-13.19,23.59,0,42.36,4.94,56.31,14.81,13.94,9.87,20.92,22.1,20.92,36.68v1.93c0,4.3,2.14,6.43,6.44,6.43h30.24c4.28,0,6.43-2.14,6.43-6.43v-1.93c0-16.73-4.94-31.85-14.8-45.37-9.88-13.52-23.92-24.13-42.16-31.86-18.24-7.72-39.15-11.58-62.74-11.58-35.19,0-63.51,8.15-84.95,24.46-21.46,16.3-32.18,38.19-32.18,65.64,0,18.89,5.24,34.44,15.76,46.66,10.51,12.23,23.49,21.78,38.94,28.64,15.45,6.87,35.17,13.73,59.2,20.59,20.17,6.01,35.08,10.94,44.73,14.8,9.65,3.86,18.02,9.23,25.1,16.09,7.08,6.87,10.62,15.67,10.62,26.39,0,15.45-6.87,28.22-20.59,38.29-13.74,10.09-31.76,15.13-54.06,15.13s-40.86-5.25-55.67-15.77c-14.8-10.51-22.2-22.85-22.2-37.01v-5.15c0-4.28-2.15-6.43-6.43-6.43h-30.89c-4.3,0-6.43,2.15-6.43,6.43v7.73c0,15.88,5.04,30.24,15.12,43.12,10.08,12.87,24.46,23.16,43.12,30.89,18.66,7.72,40,11.58,64.03,11.58M4114.49,1455.87c-21.03,0-38.08-4.83-51.16-14.48-13.09-9.65-19.63-23.91-19.63-42.8,0-20.59,8.58-36.68,25.74-48.27,17.16-11.58,39.9-17.38,68.22-17.38h67.58c1.7,0,2.57.87,2.57,2.58v50.19c0,21.46-9.23,38.51-27.67,51.17-18.45,12.66-40.33,18.99-65.64,18.99M4132.52,1159.19c-33.47,0-61.36,7.51-83.67,22.52-22.31,15.02-35.18,34.54-38.61,58.56-.87,2.57,1.07,4.3,5.79,5.15l34.75,4.5c3.86.43,6.44-1.5,7.73-5.79,3-14.16,10.94-25.2,23.81-33.14,12.87-7.93,29.6-11.91,50.2-11.91,25.74,0,44.73,6.33,56.96,18.99,12.23,12.66,18.34,29.92,18.34,51.81v24.45c0,1.73-.87,2.58-2.57,2.58h-74.65c-41.62,0-74.12,9.33-97.5,28-23.39,18.66-35.08,44.08-35.08,76.26s10.3,55.34,30.89,70.78c20.59,15.45,46.12,23.17,76.58,23.17,21.02,0,40.12-3.33,57.28-9.97,17.16-6.65,31.1-16.41,41.83-29.28.85-.86,1.61-1.07,2.25-.65.64.43.96,1.08.96,1.93v26.39c0,4.29,2.14,6.43,6.43,6.43h32.82c4.29,0,6.44-2.14,6.44-6.43v-216.24c0-32.6-10.52-58.78-31.54-78.51-21.03-19.73-50.84-29.6-89.45-29.6M3794.65,1199.09c21.88,0,40,5.69,54.38,17.05,14.37,11.37,23.91,26.7,28.64,46.01,1.7,8.16,3,21.88,3.86,41.19,0,1.72-.86,2.58-2.57,2.58h-166.68c-1.73,0-2.58-.86-2.58-2.58.85-20.16,2.58-34.75,5.15-43.76,4.28-18.44,13.4-33.14,27.35-44.09,13.94-10.94,31.43-16.41,52.45-16.41M3924,1272.45c-5.15-36.04-18.24-63.93-39.26-83.66-21.03-19.73-51.06-29.6-90.1-29.6-31.32,0-58.03,8.37-80.13,25.1-22.1,16.74-36.79,39.05-44.08,66.93-2.58,9.01-4.19,19.21-4.83,30.57-.65,11.37-.97,26.06-.97,44.08,0,38.62,3.86,68.22,11.59,88.81,9,25.32,23.81,45.05,44.4,59.2,20.59,14.16,46.12,21.45,76.58,21.89,27.89,0,52.56-5.9,74.01-17.7,21.45-11.8,37.54-28,48.27-48.59,1.71-3.86.86-6.86-2.57-9.01l-25.1-14.8c-3.44-2.14-6.43-1.29-9,2.57-7.73,15.03-18.46,26.61-32.18,34.75-13.73,8.16-29.6,12.23-47.62,12.23-24.03,0-43.76-5.57-59.21-16.73-15.45-11.16-25.53-26.39-30.24-45.7-1.72-6.85-3.01-22.09-3.86-45.69,0-1.71.85-2.58,2.58-2.58h207.87c4.28,0,6.43-2.14,6.43-6.43v-20.59c0-18.02-.86-33.03-2.57-45.05M3445.84,1195.87v-25.1c0-4.28-2.15-6.43-6.44-6.43h-72.72c-1.73,0-2.58-.85-2.58-2.58v-74.65c0-4.29-2.15-6.44-6.43-6.44h-31.54c-4.3,0-6.43,2.15-6.43,6.44v74.65c0,1.73-.87,2.58-2.58,2.58h-39.26c-4.3,0-6.43,2.15-6.43,6.43v25.1c0,4.29,2.14,6.43,6.43,6.43h39.26c1.71,0,2.58.87,2.58,2.57v204.01c0,31.32,7.93,52.77,23.81,64.36,15.86,11.58,39.26,17.38,70.15,17.38,10.72,0,18.66-.23,23.82-.65,4.28,0,6.43-2.14,6.43-6.43v-26.39c0-4.28-2.15-6.43-6.43-6.43h-16.09c-19.74,0-34.22-4.19-43.44-12.55-9.23-8.37-13.84-22.85-13.84-43.44v-189.85c0-1.7.85-2.57,2.58-2.57h72.72c4.29,0,6.44-2.14,6.44-6.43M3062.29,1455.87c-21.03,0-38.08-4.83-51.16-14.48-13.09-9.65-19.63-23.91-19.63-42.8,0-20.59,8.58-36.68,25.74-48.27,17.16-11.58,39.9-17.38,68.22-17.38h67.58c1.7,0,2.57.87,2.57,2.58v50.19c0,21.46-9.23,38.51-27.67,51.17-18.45,12.66-40.33,18.99-65.64,18.99M3080.31,1159.19c-33.47,0-61.36,7.51-83.67,22.52-22.31,15.02-35.18,34.54-38.61,58.56-.87,2.57,1.07,4.3,5.79,5.15l34.75,4.5c3.86.43,6.43-1.5,7.73-5.79,3-14.16,10.94-25.2,23.81-33.14,12.87-7.93,29.6-11.91,50.2-11.91,25.74,0,44.73,6.33,56.96,18.99,12.23,12.66,18.34,29.92,18.34,51.81v24.45c0,1.73-.87,2.58-2.57,2.58h-74.65c-41.62,0-74.12,9.33-97.5,28-23.38,18.66-35.07,44.08-35.07,76.26s10.3,55.34,30.89,70.78c20.59,15.45,46.12,23.17,76.58,23.17,21.02,0,40.11-3.33,57.28-9.97,17.16-6.65,31.1-16.41,41.83-29.28.85-.86,1.61-1.07,2.25-.65.64.43.96,1.08.96,1.93v26.39c0,4.29,2.14,6.43,6.43,6.43h32.82c4.29,0,6.44-2.14,6.44-6.43v-216.24c0-32.6-10.52-58.78-31.54-78.51-21.03-19.73-50.84-29.6-89.45-29.6M2750.17,1159.83c-39.05,0-68.01,13.3-86.88,39.89-.43.87-.96,1.08-1.61.65-.65-.42-.97-1.07-.97-1.93v-152.52c0-4.29-2.15-6.44-6.43-6.44h-32.82c-4.29,0-6.43,2.15-6.43,6.44v437.62c0,4.29,2.14,6.43,6.43,6.43h32.82c4.28,0,6.43-2.14,6.43-6.43v-204.66c0-23.59,7.29-42.69,21.89-57.27,14.58-14.59,33.67-21.89,57.28-21.89s41.28,7.51,55.66,22.52c14.37,15.03,21.56,34.33,21.56,57.92v203.36c0,4.29,2.14,6.43,6.43,6.43h32.82c4.28,0,6.43-2.14,6.43-6.43v-212.38c0-33.89-10.19-60.91-30.57-81.09-20.38-20.16-47.73-30.24-82.05-30.24M2521.07,1195.87v-25.1c0-4.28-2.15-6.43-6.44-6.43h-72.72c-1.73,0-2.58-.85-2.58-2.58v-74.65c0-4.29-2.15-6.44-6.43-6.44h-31.54c-4.3,0-6.43,2.15-6.43,6.44v74.65c0,1.73-.87,2.58-2.58,2.58h-39.26c-4.3,0-6.43,2.15-6.43,6.43v25.1c0,4.29,2.14,6.43,6.43,6.43h39.26c1.71,0,2.58.87,2.58,2.57v204.01c0,31.32,7.93,52.77,23.81,64.36,15.86,11.58,39.26,17.38,70.15,17.38,10.72,0,18.66-.23,23.82-.65,4.28,0,6.43-2.14,6.43-6.43v-26.39c0-4.28-2.15-6.43-6.43-6.43h-16.09c-19.74,0-34.22-4.19-43.44-12.55-9.23-8.37-13.84-22.85-13.84-43.44v-189.85c0-1.7.85-2.57,2.58-2.57h72.72c4.29,0,6.44-2.14,6.44-6.43M2031.97,1493.19c36.04,0,65-8.37,86.88-25.1,21.89-16.74,32.82-39.04,32.82-66.93,0-19.73-5.58-35.72-16.73-47.95-11.16-12.23-24.46-21.56-39.9-27.99-15.45-6.44-35.61-13.29-60.5-20.59-27.03-7.73-46.97-15.45-59.85-23.17-12.87-7.73-19.31-18.88-19.31-33.47,0-15.45,6.65-27.56,19.95-36.36,13.29-8.78,30.89-13.19,52.77-13.19,23.59,0,42.36,4.94,56.31,14.81,13.94,9.87,20.92,22.1,20.92,36.68v1.93c0,4.3,2.14,6.43,6.44,6.43h30.24c4.28,0,6.43-2.14,6.43-6.43v-1.93c0-16.73-4.94-31.85-14.8-45.37-9.88-13.52-23.92-24.13-42.16-31.86-18.24-7.72-39.15-11.58-62.74-11.58-35.19,0-63.51,8.15-84.95,24.46-21.46,16.3-32.18,38.19-32.18,65.64,0,18.89,5.24,34.44,15.77,46.66,10.5,12.23,23.49,21.78,38.93,28.64,15.45,6.87,35.17,13.73,59.21,20.59,20.16,6.01,35.07,10.94,44.73,14.8,9.65,3.86,18.02,9.23,25.1,16.09,7.08,6.87,10.62,15.67,10.62,26.39,0,15.45-6.87,28.22-20.59,38.29-13.73,10.09-31.76,15.13-54.06,15.13s-40.86-5.25-55.66-15.77c-14.81-10.51-22.21-22.85-22.21-37.01v-5.15c0-4.28-2.15-6.43-6.43-6.43h-30.89c-4.3,0-6.43,2.15-6.43,6.43v7.73c0,15.88,5.04,30.24,15.12,43.12,10.08,12.87,24.46,23.16,43.12,30.89,18.66,7.72,40,11.58,64.03,11.58M1895.53,1039.48h-34.11c-3.86,0-6.43,1.72-7.72,5.15l-37.97,119.7c-1.29,4.72.42,7.08,5.15,7.08h24.45c3.43,0,5.79-1.71,7.08-5.15l47.63-119.06c.85-2.14.85-3.97,0-5.47-.87-1.5-2.36-2.25-4.51-2.25M1770.69,1195.87v-25.1c0-4.28-2.15-6.43-6.43-6.43h-72.72c-1.72,0-2.58-.85-2.58-2.58v-74.65c0-4.29-2.15-6.44-6.43-6.44h-31.54c-4.29,0-6.43,2.15-6.43,6.44v74.65c0,1.73-.87,2.58-2.57,2.58h-39.26c-4.29,0-6.43,2.15-6.43,6.43v25.1c0,4.29,2.14,6.43,6.43,6.43h39.26c1.7,0,2.57.87,2.57,2.57v204.01c0,31.32,7.93,52.77,23.81,64.36,15.87,11.58,39.26,17.38,70.15,17.38,10.72,0,18.66-.23,23.81-.65,4.28,0,6.43-2.14,6.43-6.43v-26.39c0-4.28-2.15-6.43-6.43-6.43h-16.09c-19.74,0-34.22-4.19-43.44-12.55-9.23-8.37-13.84-22.85-13.84-43.44v-189.85c0-1.7.86-2.57,2.58-2.57h72.72c4.28,0,6.43-2.14,6.43-6.43M1467.58,1489.98h32.82c4.28,0,6.43-2.14,6.43-6.43v-437.62c0-4.29-2.15-6.44-6.43-6.44h-32.82c-4.3,0-6.43,2.15-6.43,6.44v437.62c0,4.29,2.14,6.43,6.43,6.43"/>
  <rect class="cls-1" x="4877.09" y="1429.2" width="58.85" height="59.62"/>
</svg>